<svg xmlns="http://www.w3.org/2000/svg" width="640" height="480" viewBox="0 0 640 480"><title>All 256 authored palette slots, index 0 at upper left, 255 at lower right</title><rect x="0" y="0" width="40" height="30" fill="rgb(13, 25, 38)"/><rect x="40" y="0" width="40" height="30" fill="rgb(29, 50, 65)"/><rect x="80" y="0" width="40" height="30" fill="rgb(41, 81, 99)"/><rect x="120" y="0" width="40" height="30" fill="rgb(83, 143, 157)"/><rect x="160" y="0" width="40" height="30" fill="rgb(160, 211, 202)"/><rect x="200" y="0" width="40" height="30" fill="rgb(230, 243, 217)"/><rect x="240" y="0" width="40" height="30" fill="rgb(250, 185, 72)"/><rect x="280" y="0" width="40" height="30" fill="rgb(210, 105, 62)"/><rect x="320" y="0" width="40" height="30" fill="rgb(52, 76, 27)"/><rect x="360" y="0" width="40" height="30" fill="rgb(42, 76, 27)"/><rect x="400" y="0" width="40" height="30" fill="rgb(33, 76, 27)"/><rect x="440" y="0" width="40" height="30" fill="rgb(27, 76, 30)"/><rect x="480" y="0" width="40" height="30" fill="rgb(27, 76, 39)"/><rect x="520" y="0" width="40" height="30" fill="rgb(27, 76, 49)"/><rect x="560" y="0" width="40" height="30" fill="rgb(27, 76, 58)"/><rect x="600" y="0" width="40" height="30" fill="rgb(27, 76, 67)"/><rect x="0" y="30" width="40" height="30" fill="rgb(27, 76, 76)"/><rect x="40" y="30" width="40" height="30" fill="rgb(27, 67, 76)"/><rect x="80" y="30" width="40" height="30" fill="rgb(27, 58, 76)"/><rect x="120" y="30" width="40" height="30" fill="rgb(27, 49, 76)"/><rect x="160" y="30" width="40" height="30" fill="rgb(27, 39, 76)"/><rect x="200" y="30" width="40" height="30" fill="rgb(27, 30, 76)"/><rect x="240" y="30" width="40" height="30" fill="rgb(33, 27, 76)"/><rect x="280" y="30" width="40" height="30" fill="rgb(42, 27, 76)"/><rect x="320" y="30" width="40" height="30" fill="rgb(52, 27, 76)"/><rect x="360" y="30" width="40" height="30" fill="rgb(61, 27, 76)"/><rect x="400" y="30" width="40" height="30" fill="rgb(70, 27, 76)"/><rect x="440" y="30" width="40" height="30" fill="rgb(76, 27, 73)"/><rect x="480" y="30" width="40" height="30" fill="rgb(76, 27, 64)"/><rect x="520" y="30" width="40" height="30" fill="rgb(76, 27, 55)"/><rect x="560" y="30" width="40" height="30" fill="rgb(76, 27, 45)"/><rect x="600" y="30" width="40" height="30" fill="rgb(76, 27, 36)"/><rect x="0" y="60" width="40" height="30" fill="rgb(102, 36, 36)"/><rect x="40" y="60" width="40" height="30" fill="rgb(102, 48, 36)"/><rect x="80" y="60" width="40" height="30" fill="rgb(102, 61, 36)"/><rect x="120" y="60" width="40" height="30" fill="rgb(102, 73, 36)"/><rect x="160" y="60" width="40" height="30" fill="rgb(102, 85, 36)"/><rect x="200" y="60" width="40" height="30" fill="rgb(102, 98, 36)"/><rect x="240" y="60" width="40" height="30" fill="rgb(94, 102, 36)"/><rect x="280" y="60" width="40" height="30" fill="rgb(81, 102, 36)"/><rect x="320" y="60" width="40" height="30" fill="rgb(69, 102, 36)"/><rect x="360" y="60" width="40" height="30" fill="rgb(56, 102, 36)"/><rect x="400" y="60" width="40" height="30" fill="rgb(44, 102, 36)"/><rect x="440" y="60" width="40" height="30" fill="rgb(36, 102, 40)"/><rect x="480" y="60" width="40" height="30" fill="rgb(36, 102, 52)"/><rect x="520" y="60" width="40" height="30" fill="rgb(36, 102, 65)"/><rect x="560" y="60" width="40" height="30" fill="rgb(36, 102, 77)"/><rect x="600" y="60" width="40" height="30" fill="rgb(36, 102, 90)"/><rect x="0" y="90" width="40" height="30" fill="rgb(36, 102, 102)"/><rect x="40" y="90" width="40" height="30" fill="rgb(36, 90, 102)"/><rect x="80" y="90" width="40" height="30" fill="rgb(36, 77, 102)"/><rect x="120" y="90" width="40" height="30" fill="rgb(36, 65, 102)"/><rect x="160" y="90" width="40" height="30" fill="rgb(36, 52, 102)"/><rect x="200" y="90" width="40" height="30" fill="rgb(36, 40, 102)"/><rect x="240" y="90" width="40" height="30" fill="rgb(44, 36, 102)"/><rect x="280" y="90" width="40" height="30" fill="rgb(56, 36, 102)"/><rect x="320" y="90" width="40" height="30" fill="rgb(69, 36, 102)"/><rect x="360" y="90" width="40" height="30" fill="rgb(81, 36, 102)"/><rect x="400" y="90" width="40" height="30" fill="rgb(94, 36, 102)"/><rect x="440" y="90" width="40" height="30" fill="rgb(102, 36, 98)"/><rect x="480" y="90" width="40" height="30" fill="rgb(102, 36, 85)"/><rect x="520" y="90" width="40" height="30" fill="rgb(102, 36, 73)"/><rect x="560" y="90" width="40" height="30" fill="rgb(102, 36, 61)"/><rect x="600" y="90" width="40" height="30" fill="rgb(102, 36, 48)"/><rect x="0" y="120" width="40" height="30" fill="rgb(128, 45, 45)"/><rect x="40" y="120" width="40" height="30" fill="rgb(128, 60, 45)"/><rect x="80" y="120" width="40" height="30" fill="rgb(128, 76, 45)"/><rect x="120" y="120" width="40" height="30" fill="rgb(128, 91, 45)"/><rect x="160" y="120" width="40" height="30" fill="rgb(128, 107, 45)"/><rect x="200" y="120" width="40" height="30" fill="rgb(128, 122, 45)"/><rect x="240" y="120" width="40" height="30" fill="rgb(117, 128, 45)"/><rect x="280" y="120" width="40" height="30" fill="rgb(102, 128, 45)"/><rect x="320" y="120" width="40" height="30" fill="rgb(86, 128, 45)"/><rect x="360" y="120" width="40" height="30" fill="rgb(71, 128, 45)"/><rect x="400" y="120" width="40" height="30" fill="rgb(55, 128, 45)"/><rect x="440" y="120" width="40" height="30" fill="rgb(45, 128, 50)"/><rect x="480" y="120" width="40" height="30" fill="rgb(45, 128, 65)"/><rect x="520" y="120" width="40" height="30" fill="rgb(45, 128, 81)"/><rect x="560" y="120" width="40" height="30" fill="rgb(45, 128, 96)"/><rect x="600" y="120" width="40" height="30" fill="rgb(45, 128, 112)"/><rect x="0" y="150" width="40" height="30" fill="rgb(45, 128, 128)"/><rect x="40" y="150" width="40" height="30" fill="rgb(45, 112, 128)"/><rect x="80" y="150" width="40" height="30" fill="rgb(45, 96, 128)"/><rect x="120" y="150" width="40" height="30" fill="rgb(45, 81, 128)"/><rect x="160" y="150" width="40" height="30" fill="rgb(45, 65, 128)"/><rect x="200" y="150" width="40" height="30" fill="rgb(45, 50, 128)"/><rect x="240" y="150" width="40" height="30" fill="rgb(55, 45, 128)"/><rect x="280" y="150" width="40" height="30" fill="rgb(71, 45, 128)"/><rect x="320" y="150" width="40" height="30" fill="rgb(86, 45, 128)"/><rect x="360" y="150" width="40" height="30" fill="rgb(102, 45, 128)"/><rect x="400" y="150" width="40" height="30" fill="rgb(117, 45, 128)"/><rect x="440" y="150" width="40" height="30" fill="rgb(128, 45, 122)"/><rect x="480" y="150" width="40" height="30" fill="rgb(128, 45, 107)"/><rect x="520" y="150" width="40" height="30" fill="rgb(128, 45, 91)"/><rect x="560" y="150" width="40" height="30" fill="rgb(128, 45, 76)"/><rect x="600" y="150" width="40" height="30" fill="rgb(128, 45, 60)"/><rect x="0" y="180" width="40" height="30" fill="rgb(153, 54, 54)"/><rect x="40" y="180" width="40" height="30" fill="rgb(153, 72, 54)"/><rect x="80" y="180" width="40" height="30" fill="rgb(153, 91, 54)"/><rect x="120" y="180" width="40" height="30" fill="rgb(153, 109, 54)"/><rect x="160" y="180" width="40" height="30" fill="rgb(153, 128, 54)"/><rect x="200" y="180" width="40" height="30" fill="rgb(153, 147, 54)"/><rect x="240" y="180" width="40" height="30" fill="rgb(141, 153, 54)"/><rect x="280" y="180" width="40" height="30" fill="rgb(122, 153, 54)"/><rect x="320" y="180" width="40" height="30" fill="rgb(103, 153, 54)"/><rect x="360" y="180" width="40" height="30" fill="rgb(85, 153, 54)"/><rect x="400" y="180" width="40" height="30" fill="rgb(66, 153, 54)"/><rect x="440" y="180" width="40" height="30" fill="rgb(54, 153, 60)"/><rect x="480" y="180" width="40" height="30" fill="rgb(54, 153, 78)"/><rect x="520" y="180" width="40" height="30" fill="rgb(54, 153, 97)"/><rect x="560" y="180" width="40" height="30" fill="rgb(54, 153, 116)"/><rect x="600" y="180" width="40" height="30" fill="rgb(54, 153, 134)"/><rect x="0" y="210" width="40" height="30" fill="rgb(54, 153, 153)"/><rect x="40" y="210" width="40" height="30" fill="rgb(54, 134, 153)"/><rect x="80" y="210" width="40" height="30" fill="rgb(54, 116, 153)"/><rect x="120" y="210" width="40" height="30" fill="rgb(54, 97, 153)"/><rect x="160" y="210" width="40" height="30" fill="rgb(54, 78, 153)"/><rect x="200" y="210" width="40" height="30" fill="rgb(54, 60, 153)"/><rect x="240" y="210" width="40" height="30" fill="rgb(66, 54, 153)"/><rect x="280" y="210" width="40" height="30" fill="rgb(85, 54, 153)"/><rect x="320" y="210" width="40" height="30" fill="rgb(103, 54, 153)"/><rect x="360" y="210" width="40" height="30" fill="rgb(122, 54, 153)"/><rect x="400" y="210" width="40" height="30" fill="rgb(141, 54, 153)"/><rect x="440" y="210" width="40" height="30" fill="rgb(153, 54, 147)"/><rect x="480" y="210" width="40" height="30" fill="rgb(153, 54, 128)"/><rect x="520" y="210" width="40" height="30" fill="rgb(153, 54, 109)"/><rect x="560" y="210" width="40" height="30" fill="rgb(153, 54, 91)"/><rect x="600" y="210" width="40" height="30" fill="rgb(153, 54, 72)"/><rect x="0" y="240" width="40" height="30" fill="rgb(178, 62, 62)"/><rect x="40" y="240" width="40" height="30" fill="rgb(178, 84, 62)"/><rect x="80" y="240" width="40" height="30" fill="rgb(178, 106, 62)"/><rect x="120" y="240" width="40" height="30" fill="rgb(178, 128, 62)"/><rect x="160" y="240" width="40" height="30" fill="rgb(178, 149, 62)"/><rect x="200" y="240" width="40" height="30" fill="rgb(178, 171, 62)"/><rect x="240" y="240" width="40" height="30" fill="rgb(164, 178, 62)"/><rect x="280" y="240" width="40" height="30" fill="rgb(142, 178, 62)"/><rect x="320" y="240" width="40" height="30" fill="rgb(120, 178, 62)"/><rect x="360" y="240" width="40" height="30" fill="rgb(99, 178, 62)"/><rect x="400" y="240" width="40" height="30" fill="rgb(77, 178, 62)"/><rect x="440" y="240" width="40" height="30" fill="rgb(62, 178, 70)"/><rect x="480" y="240" width="40" height="30" fill="rgb(62, 178, 91)"/><rect x="520" y="240" width="40" height="30" fill="rgb(62, 178, 113)"/><rect x="560" y="240" width="40" height="30" fill="rgb(62, 178, 135)"/><rect x="600" y="240" width="40" height="30" fill="rgb(62, 178, 157)"/><rect x="0" y="270" width="40" height="30" fill="rgb(62, 178, 178)"/><rect x="40" y="270" width="40" height="30" fill="rgb(62, 157, 178)"/><rect x="80" y="270" width="40" height="30" fill="rgb(62, 135, 178)"/><rect x="120" y="270" width="40" height="30" fill="rgb(62, 113, 178)"/><rect x="160" y="270" width="40" height="30" fill="rgb(62, 91, 178)"/><rect x="200" y="270" width="40" height="30" fill="rgb(62, 70, 178)"/><rect x="240" y="270" width="40" height="30" fill="rgb(77, 62, 178)"/><rect x="280" y="270" width="40" height="30" fill="rgb(99, 62, 178)"/><rect x="320" y="270" width="40" height="30" fill="rgb(120, 62, 178)"/><rect x="360" y="270" width="40" height="30" fill="rgb(142, 62, 178)"/><rect x="400" y="270" width="40" height="30" fill="rgb(164, 62, 178)"/><rect x="440" y="270" width="40" height="30" fill="rgb(178, 62, 171)"/><rect x="480" y="270" width="40" height="30" fill="rgb(178, 62, 149)"/><rect x="520" y="270" width="40" height="30" fill="rgb(178, 62, 128)"/><rect x="560" y="270" width="40" height="30" fill="rgb(178, 62, 106)"/><rect x="600" y="270" width="40" height="30" fill="rgb(178, 62, 84)"/><rect x="0" y="300" width="40" height="30" fill="rgb(204, 71, 71)"/><rect x="40" y="300" width="40" height="30" fill="rgb(204, 96, 71)"/><rect x="80" y="300" width="40" height="30" fill="rgb(204, 121, 71)"/><rect x="120" y="300" width="40" height="30" fill="rgb(204, 146, 71)"/><rect x="160" y="300" width="40" height="30" fill="rgb(204, 171, 71)"/><rect x="200" y="300" width="40" height="30" fill="rgb(204, 196, 71)"/><rect x="240" y="300" width="40" height="30" fill="rgb(187, 204, 71)"/><rect x="280" y="300" width="40" height="30" fill="rgb(163, 204, 71)"/><rect x="320" y="300" width="40" height="30" fill="rgb(138, 204, 71)"/><rect x="360" y="300" width="40" height="30" fill="rgb(113, 204, 71)"/><rect x="400" y="300" width="40" height="30" fill="rgb(88, 204, 71)"/><rect x="440" y="300" width="40" height="30" fill="rgb(71, 204, 80)"/><rect x="480" y="300" width="40" height="30" fill="rgb(71, 204, 105)"/><rect x="520" y="300" width="40" height="30" fill="rgb(71, 204, 129)"/><rect x="560" y="300" width="40" height="30" fill="rgb(71, 204, 154)"/><rect x="600" y="300" width="40" height="30" fill="rgb(71, 204, 179)"/><rect x="0" y="330" width="40" height="30" fill="rgb(71, 204, 204)"/><rect x="40" y="330" width="40" height="30" fill="rgb(71, 179, 204)"/><rect x="80" y="330" width="40" height="30" fill="rgb(71, 154, 204)"/><rect x="120" y="330" width="40" height="30" fill="rgb(71, 129, 204)"/><rect x="160" y="330" width="40" height="30" fill="rgb(71, 105, 204)"/><rect x="200" y="330" width="40" height="30" fill="rgb(71, 80, 204)"/><rect x="240" y="330" width="40" height="30" fill="rgb(88, 71, 204)"/><rect x="280" y="330" width="40" height="30" fill="rgb(113, 71, 204)"/><rect x="320" y="330" width="40" height="30" fill="rgb(138, 71, 204)"/><rect x="360" y="330" width="40" height="30" fill="rgb(163, 71, 204)"/><rect x="400" y="330" width="40" height="30" fill="rgb(187, 71, 204)"/><rect x="440" y="330" width="40" height="30" fill="rgb(204, 71, 196)"/><rect x="480" y="330" width="40" height="30" fill="rgb(204, 71, 171)"/><rect x="520" y="330" width="40" height="30" fill="rgb(204, 71, 146)"/><rect x="560" y="330" width="40" height="30" fill="rgb(204, 71, 121)"/><rect x="600" y="330" width="40" height="30" fill="rgb(204, 71, 96)"/><rect x="0" y="360" width="40" height="30" fill="rgb(229, 80, 80)"/><rect x="40" y="360" width="40" height="30" fill="rgb(229, 108, 80)"/><rect x="80" y="360" width="40" height="30" fill="rgb(229, 136, 80)"/><rect x="120" y="360" width="40" height="30" fill="rgb(229, 164, 80)"/><rect x="160" y="360" width="40" height="30" fill="rgb(229, 192, 80)"/><rect x="200" y="360" width="40" height="30" fill="rgb(229, 220, 80)"/><rect x="240" y="360" width="40" height="30" fill="rgb(211, 229, 80)"/><rect x="280" y="360" width="40" height="30" fill="rgb(183, 229, 80)"/><rect x="320" y="360" width="40" height="30" fill="rgb(155, 229, 80)"/><rect x="360" y="360" width="40" height="30" fill="rgb(127, 229, 80)"/><rect x="400" y="360" width="40" height="30" fill="rgb(99, 229, 80)"/><rect x="440" y="360" width="40" height="30" fill="rgb(80, 229, 90)"/><rect x="480" y="360" width="40" height="30" fill="rgb(80, 229, 118)"/><rect x="520" y="360" width="40" height="30" fill="rgb(80, 229, 146)"/><rect x="560" y="360" width="40" height="30" fill="rgb(80, 229, 174)"/><rect x="600" y="360" width="40" height="30" fill="rgb(80, 229, 202)"/><rect x="0" y="390" width="40" height="30" fill="rgb(80, 229, 229)"/><rect x="40" y="390" width="40" height="30" fill="rgb(80, 202, 229)"/><rect x="80" y="390" width="40" height="30" fill="rgb(80, 174, 229)"/><rect x="120" y="390" width="40" height="30" fill="rgb(80, 146, 229)"/><rect x="160" y="390" width="40" height="30" fill="rgb(80, 118, 229)"/><rect x="200" y="390" width="40" height="30" fill="rgb(80, 90, 229)"/><rect x="240" y="390" width="40" height="30" fill="rgb(99, 80, 229)"/><rect x="280" y="390" width="40" height="30" fill="rgb(127, 80, 229)"/><rect x="320" y="390" width="40" height="30" fill="rgb(155, 80, 229)"/><rect x="360" y="390" width="40" height="30" fill="rgb(183, 80, 229)"/><rect x="400" y="390" width="40" height="30" fill="rgb(211, 80, 229)"/><rect x="440" y="390" width="40" height="30" fill="rgb(229, 80, 220)"/><rect x="480" y="390" width="40" height="30" fill="rgb(229, 80, 192)"/><rect x="520" y="390" width="40" height="30" fill="rgb(229, 80, 164)"/><rect x="560" y="390" width="40" height="30" fill="rgb(229, 80, 136)"/><rect x="600" y="390" width="40" height="30" fill="rgb(229, 80, 108)"/><rect x="0" y="420" width="40" height="30" fill="rgb(255, 89, 89)"/><rect x="40" y="420" width="40" height="30" fill="rgb(255, 120, 89)"/><rect x="80" y="420" width="40" height="30" fill="rgb(255, 151, 89)"/><rect x="120" y="420" width="40" height="30" fill="rgb(255, 182, 89)"/><rect x="160" y="420" width="40" height="30" fill="rgb(255, 214, 89)"/><rect x="200" y="420" width="40" height="30" fill="rgb(255, 245, 89)"/><rect x="240" y="420" width="40" height="30" fill="rgb(234, 255, 89)"/><rect x="280" y="420" width="40" height="30" fill="rgb(203, 255, 89)"/><rect x="320" y="420" width="40" height="30" fill="rgb(172, 255, 89)"/><rect x="360" y="420" width="40" height="30" fill="rgb(141, 255, 89)"/><rect x="400" y="420" width="40" height="30" fill="rgb(110, 255, 89)"/><rect x="440" y="420" width="40" height="30" fill="rgb(89, 255, 100)"/><rect x="480" y="420" width="40" height="30" fill="rgb(89, 255, 131)"/><rect x="520" y="420" width="40" height="30" fill="rgb(89, 255, 162)"/><rect x="560" y="420" width="40" height="30" fill="rgb(89, 255, 193)"/><rect x="600" y="420" width="40" height="30" fill="rgb(89, 255, 224)"/><rect x="0" y="450" width="40" height="30" fill="rgb(89, 255, 255)"/><rect x="40" y="450" width="40" height="30" fill="rgb(89, 224, 255)"/><rect x="80" y="450" width="40" height="30" fill="rgb(89, 193, 255)"/><rect x="120" y="450" width="40" height="30" fill="rgb(89, 162, 255)"/><rect x="160" y="450" width="40" height="30" fill="rgb(89, 131, 255)"/><rect x="200" y="450" width="40" height="30" fill="rgb(89, 100, 255)"/><rect x="240" y="450" width="40" height="30" fill="rgb(110, 89, 255)"/><rect x="280" y="450" width="40" height="30" fill="rgb(141, 89, 255)"/><rect x="320" y="450" width="40" height="30" fill="rgb(172, 89, 255)"/><rect x="360" y="450" width="40" height="30" fill="rgb(203, 89, 255)"/><rect x="400" y="450" width="40" height="30" fill="rgb(234, 89, 255)"/><rect x="440" y="450" width="40" height="30" fill="rgb(255, 89, 245)"/><rect x="480" y="450" width="40" height="30" fill="rgb(255, 89, 214)"/><rect x="520" y="450" width="40" height="30" fill="rgb(255, 89, 182)"/><rect x="560" y="450" width="40" height="30" fill="rgb(255, 89, 151)"/><rect x="600" y="450" width="40" height="30" fill="rgb(255, 89, 120)"/></svg>