<svg xmlns="http://www.w3.org/2000/svg" width="640" height="320" viewBox="0 0 64 32" preserveAspectRatio="none" shape-rendering="crispEdges"><title>Frame 8: solid writes and retained blocks</title><rect x="0" y="0" width="4" height="4" fill="#22292a" stroke="#53615a" stroke-width=".12"/><path d="M1 2h2" stroke="#a8b09e" stroke-width=".35"/><rect x="4" y="0" width="4" height="4" fill="#22292a" stroke="#53615a" stroke-width=".12"/><path d="M5 2h2" stroke="#a8b09e" stroke-width=".35"/><rect x="8" y="0" width="4" height="4" fill="#22292a" stroke="#53615a" stroke-width=".12"/><path d="M9 2h2" stroke="#a8b09e" stroke-width=".35"/><rect x="12" y="0" width="4" height="4" fill="#22292a" stroke="#53615a" stroke-width=".12"/><path d="M13 2h2" stroke="#a8b09e" stroke-width=".35"/><rect x="16" y="0" width="4" height="4" fill="#22292a" stroke="#53615a" stroke-width=".12"/><path d="M17 2h2" stroke="#a8b09e" stroke-width=".35"/><rect x="20" y="0" width="4" height="4" fill="#22292a" stroke="#53615a" stroke-width=".12"/><path d="M21 2h2" stroke="#a8b09e" stroke-width=".35"/><rect x="24" y="0" width="4" height="4" fill="#22292a" stroke="#53615a" stroke-width=".12"/><path d="M25 2h2" stroke="#a8b09e" stroke-width=".35"/><rect x="28" y="0" width="4" height="4" fill="#22292a" stroke="#53615a" stroke-width=".12"/><path d="M29 2h2" stroke="#a8b09e" stroke-width=".35"/><rect x="32" y="0" width="4" height="4" fill="#22292a" stroke="#53615a" stroke-width=".12"/><path d="M33 2h2" stroke="#a8b09e" stroke-width=".35"/><rect x="36" y="0" width="4" height="4" fill="#22292a" stroke="#53615a" stroke-width=".12"/><path d="M37 2h2" stroke="#a8b09e" stroke-width=".35"/><rect x="40" y="0" width="4" height="4" fill="#22292a" stroke="#53615a" stroke-width=".12"/><path d="M41 2h2" stroke="#a8b09e" stroke-width=".35"/><rect x="44" y="0" width="4" height="4" fill="#22292a" stroke="#53615a" stroke-width=".12"/><path d="M45 2h2" stroke="#a8b09e" stroke-width=".35"/><rect x="48" y="0" width="4" height="4" fill="#22292a" stroke="#53615a" stroke-width=".12"/><path d="M49 2h2" stroke="#a8b09e" stroke-width=".35"/><rect x="52" y="0" width="4" height="4" fill="#22292a" stroke="#53615a" stroke-width=".12"/><path d="M53 2h2" stroke="#a8b09e" stroke-width=".35"/><rect x="56" y="0" width="4" height="4" fill="#22292a" stroke="#53615a" stroke-width=".12"/><path d="M57 2h2" stroke="#a8b09e" stroke-width=".35"/><rect x="60" y="0" width="4" height="4" fill="#22292a" stroke="#53615a" stroke-width=".12"/><path d="M61 2h2" stroke="#a8b09e" stroke-width=".35"/><rect x="0" y="4" width="4" height="4" fill="#22292a" stroke="#53615a" stroke-width=".12"/><path d="M1 6h2" stroke="#a8b09e" stroke-width=".35"/><rect x="4" y="4" width="4" height="4" fill="#22292a" stroke="#53615a" stroke-width=".12"/><path d="M5 6h2" stroke="#a8b09e" stroke-width=".35"/><rect x="8" y="4" width="4" height="4" fill="#22292a" stroke="#53615a" stroke-width=".12"/><path d="M9 6h2" stroke="#a8b09e" stroke-width=".35"/><rect x="12" y="4" width="4" height="4" fill="#22292a" stroke="#53615a" stroke-width=".12"/><path d="M13 6h2" stroke="#a8b09e" stroke-width=".35"/><rect x="16" y="4" width="4" height="4" fill="#22292a" stroke="#53615a" stroke-width=".12"/><path d="M17 6h2" stroke="#a8b09e" stroke-width=".35"/><rect x="20" y="4" width="4" height="4" fill="#22292a" stroke="#53615a" stroke-width=".12"/><path d="M21 6h2" stroke="#a8b09e" stroke-width=".35"/><rect x="24" y="4" width="4" height="4" fill="#22292a" stroke="#53615a" stroke-width=".12"/><path d="M25 6h2" stroke="#a8b09e" stroke-width=".35"/><rect x="28" y="4" width="4" height="4" fill="#22292a" stroke="#53615a" stroke-width=".12"/><path d="M29 6h2" stroke="#a8b09e" stroke-width=".35"/><rect x="32" y="4" width="4" height="4" fill="#22292a" stroke="#53615a" stroke-width=".12"/><path d="M33 6h2" stroke="#a8b09e" stroke-width=".35"/><rect x="36" y="4" width="4" height="4" fill="#22292a" stroke="#53615a" stroke-width=".12"/><path d="M37 6h2" stroke="#a8b09e" stroke-width=".35"/><rect x="40" y="4" width="4" height="4" fill="#22292a" stroke="#53615a" stroke-width=".12"/><path d="M41 6h2" stroke="#a8b09e" stroke-width=".35"/><rect x="44" y="4" width="4" height="4" fill="#22292a" stroke="#53615a" stroke-width=".12"/><path d="M45 6h2" stroke="#a8b09e" stroke-width=".35"/><rect x="48" y="4" width="4" height="4" fill="#22292a" stroke="#53615a" stroke-width=".12"/><path d="M49 6h2" stroke="#a8b09e" stroke-width=".35"/><rect x="52" y="4" width="4" height="4" fill="#22292a" stroke="#53615a" stroke-width=".12"/><path d="M53 6h2" stroke="#a8b09e" stroke-width=".35"/><rect x="56" y="4" width="4" height="4" fill="#22292a" stroke="#53615a" stroke-width=".12"/><path d="M57 6h2" stroke="#a8b09e" stroke-width=".35"/><rect x="60" y="4" width="4" height="4" fill="#22292a" stroke="#53615a" stroke-width=".12"/><path d="M61 6h2" stroke="#a8b09e" stroke-width=".35"/><rect x="0" y="8" width="4" height="4" fill="#22292a" stroke="#53615a" stroke-width=".12"/><path d="M1 10h2" stroke="#a8b09e" stroke-width=".35"/><rect x="4" y="8" width="4" height="4" fill="#22292a" stroke="#53615a" stroke-width=".12"/><path d="M5 10h2" stroke="#a8b09e" stroke-width=".35"/><rect x="8" y="8" width="4" height="4" fill="#22292a" stroke="#53615a" stroke-width=".12"/><path d="M9 10h2" stroke="#a8b09e" stroke-width=".35"/><rect x="12" y="8" width="4" height="4" fill="#22292a" stroke="#53615a" stroke-width=".12"/><path d="M13 10h2" stroke="#a8b09e" stroke-width=".35"/><rect x="16" y="8" width="4" height="4" fill="#22292a" stroke="#53615a" stroke-width=".12"/><path d="M17 10h2" stroke="#a8b09e" stroke-width=".35"/><rect x="20" y="8" width="4" height="4" fill="#22292a" stroke="#53615a" stroke-width=".12"/><path d="M21 10h2" stroke="#a8b09e" stroke-width=".35"/><rect x="24" y="8" width="4" height="4" fill="#22292a" stroke="#53615a" stroke-width=".12"/><path d="M25 10h2" stroke="#a8b09e" stroke-width=".35"/><rect x="28" y="8" width="4" height="4" fill="#22292a" stroke="#53615a" stroke-width=".12"/><path d="M29 10h2" stroke="#a8b09e" stroke-width=".35"/><rect x="32" y="8" width="4" height="4" fill="#b6ef63" stroke="#53615a" stroke-width=".12"/><rect x="36" y="8" width="4" height="4" fill="#b6ef63" stroke="#53615a" stroke-width=".12"/><rect x="40" y="8" width="4" height="4" fill="#b6ef63" stroke="#53615a" stroke-width=".12"/><rect x="44" y="8" width="4" height="4" fill="#b6ef63" stroke="#53615a" stroke-width=".12"/><rect x="48" y="8" width="4" height="4" fill="#b6ef63" stroke="#53615a" stroke-width=".12"/><rect x="52" y="8" width="4" height="4" fill="#22292a" stroke="#53615a" stroke-width=".12"/><path d="M53 10h2" stroke="#a8b09e" stroke-width=".35"/><rect x="56" y="8" width="4" height="4" fill="#22292a" stroke="#53615a" stroke-width=".12"/><path d="M57 10h2" stroke="#a8b09e" stroke-width=".35"/><rect x="60" y="8" width="4" height="4" fill="#22292a" stroke="#53615a" stroke-width=".12"/><path d="M61 10h2" stroke="#a8b09e" stroke-width=".35"/><rect x="0" y="12" width="4" height="4" fill="#22292a" stroke="#53615a" stroke-width=".12"/><path d="M1 14h2" stroke="#a8b09e" stroke-width=".35"/><rect x="4" y="12" width="4" height="4" fill="#22292a" stroke="#53615a" stroke-width=".12"/><path d="M5 14h2" stroke="#a8b09e" stroke-width=".35"/><rect x="8" y="12" width="4" height="4" fill="#22292a" stroke="#53615a" stroke-width=".12"/><path d="M9 14h2" stroke="#a8b09e" stroke-width=".35"/><rect x="12" y="12" width="4" height="4" fill="#22292a" stroke="#53615a" stroke-width=".12"/><path d="M13 14h2" stroke="#a8b09e" stroke-width=".35"/><rect x="16" y="12" width="4" height="4" fill="#22292a" stroke="#53615a" stroke-width=".12"/><path d="M17 14h2" stroke="#a8b09e" stroke-width=".35"/><rect x="20" y="12" width="4" height="4" fill="#22292a" stroke="#53615a" stroke-width=".12"/><path d="M21 14h2" stroke="#a8b09e" stroke-width=".35"/><rect x="24" y="12" width="4" height="4" fill="#22292a" stroke="#53615a" stroke-width=".12"/><path d="M25 14h2" stroke="#a8b09e" stroke-width=".35"/><rect x="28" y="12" width="4" height="4" fill="#22292a" stroke="#53615a" stroke-width=".12"/><path d="M29 14h2" stroke="#a8b09e" stroke-width=".35"/><rect x="32" y="12" width="4" height="4" fill="#b6ef63" stroke="#53615a" stroke-width=".12"/><rect x="36" y="12" width="4" height="4" fill="#b6ef63" stroke="#53615a" stroke-width=".12"/><rect x="40" y="12" width="4" height="4" fill="#b6ef63" stroke="#53615a" stroke-width=".12"/><rect x="44" y="12" width="4" height="4" fill="#b6ef63" stroke="#53615a" stroke-width=".12"/><rect x="48" y="12" width="4" height="4" fill="#b6ef63" stroke="#53615a" stroke-width=".12"/><rect x="52" y="12" width="4" height="4" fill="#22292a" stroke="#53615a" stroke-width=".12"/><path d="M53 14h2" stroke="#a8b09e" stroke-width=".35"/><rect x="56" y="12" width="4" height="4" fill="#22292a" stroke="#53615a" stroke-width=".12"/><path d="M57 14h2" stroke="#a8b09e" stroke-width=".35"/><rect x="60" y="12" width="4" height="4" fill="#22292a" stroke="#53615a" stroke-width=".12"/><path d="M61 14h2" stroke="#a8b09e" stroke-width=".35"/><rect x="0" y="16" width="4" height="4" fill="#22292a" stroke="#53615a" stroke-width=".12"/><path d="M1 18h2" stroke="#a8b09e" stroke-width=".35"/><rect x="4" y="16" width="4" height="4" fill="#22292a" stroke="#53615a" stroke-width=".12"/><path d="M5 18h2" stroke="#a8b09e" stroke-width=".35"/><rect x="8" y="16" width="4" height="4" fill="#22292a" stroke="#53615a" stroke-width=".12"/><path d="M9 18h2" stroke="#a8b09e" stroke-width=".35"/><rect x="12" y="16" width="4" height="4" fill="#22292a" stroke="#53615a" stroke-width=".12"/><path d="M13 18h2" stroke="#a8b09e" stroke-width=".35"/><rect x="16" y="16" width="4" height="4" fill="#22292a" stroke="#53615a" stroke-width=".12"/><path d="M17 18h2" stroke="#a8b09e" stroke-width=".35"/><rect x="20" y="16" width="4" height="4" fill="#22292a" stroke="#53615a" stroke-width=".12"/><path d="M21 18h2" stroke="#a8b09e" stroke-width=".35"/><rect x="24" y="16" width="4" height="4" fill="#22292a" stroke="#53615a" stroke-width=".12"/><path d="M25 18h2" stroke="#a8b09e" stroke-width=".35"/><rect x="28" y="16" width="4" height="4" fill="#22292a" stroke="#53615a" stroke-width=".12"/><path d="M29 18h2" stroke="#a8b09e" stroke-width=".35"/><rect x="32" y="16" width="4" height="4" fill="#b6ef63" stroke="#53615a" stroke-width=".12"/><rect x="36" y="16" width="4" height="4" fill="#b6ef63" stroke="#53615a" stroke-width=".12"/><rect x="40" y="16" width="4" height="4" fill="#b6ef63" stroke="#53615a" stroke-width=".12"/><rect x="44" y="16" width="4" height="4" fill="#b6ef63" stroke="#53615a" stroke-width=".12"/><rect x="48" y="16" width="4" height="4" fill="#b6ef63" stroke="#53615a" stroke-width=".12"/><rect x="52" y="16" width="4" height="4" fill="#22292a" stroke="#53615a" stroke-width=".12"/><path d="M53 18h2" stroke="#a8b09e" stroke-width=".35"/><rect x="56" y="16" width="4" height="4" fill="#22292a" stroke="#53615a" stroke-width=".12"/><path d="M57 18h2" stroke="#a8b09e" stroke-width=".35"/><rect x="60" y="16" width="4" height="4" fill="#22292a" stroke="#53615a" stroke-width=".12"/><path d="M61 18h2" stroke="#a8b09e" stroke-width=".35"/><rect x="0" y="20" width="4" height="4" fill="#22292a" stroke="#53615a" stroke-width=".12"/><path d="M1 22h2" stroke="#a8b09e" stroke-width=".35"/><rect x="4" y="20" width="4" height="4" fill="#22292a" stroke="#53615a" stroke-width=".12"/><path d="M5 22h2" stroke="#a8b09e" stroke-width=".35"/><rect x="8" y="20" width="4" height="4" fill="#22292a" stroke="#53615a" stroke-width=".12"/><path d="M9 22h2" stroke="#a8b09e" stroke-width=".35"/><rect x="12" y="20" width="4" height="4" fill="#22292a" stroke="#53615a" stroke-width=".12"/><path d="M13 22h2" stroke="#a8b09e" stroke-width=".35"/><rect x="16" y="20" width="4" height="4" fill="#22292a" stroke="#53615a" stroke-width=".12"/><path d="M17 22h2" stroke="#a8b09e" stroke-width=".35"/><rect x="20" y="20" width="4" height="4" fill="#22292a" stroke="#53615a" stroke-width=".12"/><path d="M21 22h2" stroke="#a8b09e" stroke-width=".35"/><rect x="24" y="20" width="4" height="4" fill="#22292a" stroke="#53615a" stroke-width=".12"/><path d="M25 22h2" stroke="#a8b09e" stroke-width=".35"/><rect x="28" y="20" width="4" height="4" fill="#22292a" stroke="#53615a" stroke-width=".12"/><path d="M29 22h2" stroke="#a8b09e" stroke-width=".35"/><rect x="32" y="20" width="4" height="4" fill="#22292a" stroke="#53615a" stroke-width=".12"/><path d="M33 22h2" stroke="#a8b09e" stroke-width=".35"/><rect x="36" y="20" width="4" height="4" fill="#22292a" stroke="#53615a" stroke-width=".12"/><path d="M37 22h2" stroke="#a8b09e" stroke-width=".35"/><rect x="40" y="20" width="4" height="4" fill="#22292a" stroke="#53615a" stroke-width=".12"/><path d="M41 22h2" stroke="#a8b09e" stroke-width=".35"/><rect x="44" y="20" width="4" height="4" fill="#22292a" stroke="#53615a" stroke-width=".12"/><path d="M45 22h2" stroke="#a8b09e" stroke-width=".35"/><rect x="48" y="20" width="4" height="4" fill="#22292a" stroke="#53615a" stroke-width=".12"/><path d="M49 22h2" stroke="#a8b09e" stroke-width=".35"/><rect x="52" y="20" width="4" height="4" fill="#22292a" stroke="#53615a" stroke-width=".12"/><path d="M53 22h2" stroke="#a8b09e" stroke-width=".35"/><rect x="56" y="20" width="4" height="4" fill="#22292a" stroke="#53615a" stroke-width=".12"/><path d="M57 22h2" stroke="#a8b09e" stroke-width=".35"/><rect x="60" y="20" width="4" height="4" fill="#22292a" stroke="#53615a" stroke-width=".12"/><path d="M61 22h2" stroke="#a8b09e" stroke-width=".35"/><rect x="0" y="24" width="4" height="4" fill="#22292a" stroke="#53615a" stroke-width=".12"/><path d="M1 26h2" stroke="#a8b09e" stroke-width=".35"/><rect x="4" y="24" width="4" height="4" fill="#22292a" stroke="#53615a" stroke-width=".12"/><path d="M5 26h2" stroke="#a8b09e" stroke-width=".35"/><rect x="8" y="24" width="4" height="4" fill="#22292a" stroke="#53615a" stroke-width=".12"/><path d="M9 26h2" stroke="#a8b09e" stroke-width=".35"/><rect x="12" y="24" width="4" height="4" fill="#22292a" stroke="#53615a" stroke-width=".12"/><path d="M13 26h2" stroke="#a8b09e" stroke-width=".35"/><rect x="16" y="24" width="4" height="4" fill="#22292a" stroke="#53615a" stroke-width=".12"/><path d="M17 26h2" stroke="#a8b09e" stroke-width=".35"/><rect x="20" y="24" width="4" height="4" fill="#22292a" stroke="#53615a" stroke-width=".12"/><path d="M21 26h2" stroke="#a8b09e" stroke-width=".35"/><rect x="24" y="24" width="4" height="4" fill="#22292a" stroke="#53615a" stroke-width=".12"/><path d="M25 26h2" stroke="#a8b09e" stroke-width=".35"/><rect x="28" y="24" width="4" height="4" fill="#22292a" stroke="#53615a" stroke-width=".12"/><path d="M29 26h2" stroke="#a8b09e" stroke-width=".35"/><rect x="32" y="24" width="4" height="4" fill="#22292a" stroke="#53615a" stroke-width=".12"/><path d="M33 26h2" stroke="#a8b09e" stroke-width=".35"/><rect x="36" y="24" width="4" height="4" fill="#22292a" stroke="#53615a" stroke-width=".12"/><path d="M37 26h2" stroke="#a8b09e" stroke-width=".35"/><rect x="40" y="24" width="4" height="4" fill="#22292a" stroke="#53615a" stroke-width=".12"/><path d="M41 26h2" stroke="#a8b09e" stroke-width=".35"/><rect x="44" y="24" width="4" height="4" fill="#22292a" stroke="#53615a" stroke-width=".12"/><path d="M45 26h2" stroke="#a8b09e" stroke-width=".35"/><rect x="48" y="24" width="4" height="4" fill="#22292a" stroke="#53615a" stroke-width=".12"/><path d="M49 26h2" stroke="#a8b09e" stroke-width=".35"/><rect x="52" y="24" width="4" height="4" fill="#22292a" stroke="#53615a" stroke-width=".12"/><path d="M53 26h2" stroke="#a8b09e" stroke-width=".35"/><rect x="56" y="24" width="4" height="4" fill="#22292a" stroke="#53615a" stroke-width=".12"/><path d="M57 26h2" stroke="#a8b09e" stroke-width=".35"/><rect x="60" y="24" width="4" height="4" fill="#22292a" stroke="#53615a" stroke-width=".12"/><path d="M61 26h2" stroke="#a8b09e" stroke-width=".35"/><rect x="0" y="28" width="4" height="4" fill="#22292a" stroke="#53615a" stroke-width=".12"/><path d="M1 30h2" stroke="#a8b09e" stroke-width=".35"/><rect x="4" y="28" width="4" height="4" fill="#22292a" stroke="#53615a" stroke-width=".12"/><path d="M5 30h2" stroke="#a8b09e" stroke-width=".35"/><rect x="8" y="28" width="4" height="4" fill="#22292a" stroke="#53615a" stroke-width=".12"/><path d="M9 30h2" stroke="#a8b09e" stroke-width=".35"/><rect x="12" y="28" width="4" height="4" fill="#22292a" stroke="#53615a" stroke-width=".12"/><path d="M13 30h2" stroke="#a8b09e" stroke-width=".35"/><rect x="16" y="28" width="4" height="4" fill="#22292a" stroke="#53615a" stroke-width=".12"/><path d="M17 30h2" stroke="#a8b09e" stroke-width=".35"/><rect x="20" y="28" width="4" height="4" fill="#22292a" stroke="#53615a" stroke-width=".12"/><path d="M21 30h2" stroke="#a8b09e" stroke-width=".35"/><rect x="24" y="28" width="4" height="4" fill="#22292a" stroke="#53615a" stroke-width=".12"/><path d="M25 30h2" stroke="#a8b09e" stroke-width=".35"/><rect x="28" y="28" width="4" height="4" fill="#22292a" stroke="#53615a" stroke-width=".12"/><path d="M29 30h2" stroke="#a8b09e" stroke-width=".35"/><rect x="32" y="28" width="4" height="4" fill="#22292a" stroke="#53615a" stroke-width=".12"/><path d="M33 30h2" stroke="#a8b09e" stroke-width=".35"/><rect x="36" y="28" width="4" height="4" fill="#22292a" stroke="#53615a" stroke-width=".12"/><path d="M37 30h2" stroke="#a8b09e" stroke-width=".35"/><rect x="40" y="28" width="4" height="4" fill="#22292a" stroke="#53615a" stroke-width=".12"/><path d="M41 30h2" stroke="#a8b09e" stroke-width=".35"/><rect x="44" y="28" width="4" height="4" fill="#22292a" stroke="#53615a" stroke-width=".12"/><path d="M45 30h2" stroke="#a8b09e" stroke-width=".35"/><rect x="48" y="28" width="4" height="4" fill="#22292a" stroke="#53615a" stroke-width=".12"/><path d="M49 30h2" stroke="#a8b09e" stroke-width=".35"/><rect x="52" y="28" width="4" height="4" fill="#22292a" stroke="#53615a" stroke-width=".12"/><path d="M53 30h2" stroke="#a8b09e" stroke-width=".35"/><rect x="56" y="28" width="4" height="4" fill="#22292a" stroke="#53615a" stroke-width=".12"/><path d="M57 30h2" stroke="#a8b09e" stroke-width=".35"/><rect x="60" y="28" width="4" height="4" fill="#22292a" stroke="#53615a" stroke-width=".12"/><path d="M61 30h2" stroke="#a8b09e" stroke-width=".35"/></svg>